<?xml version="1.0" encoding="UTF-8"?> <svg xmlns="http://www.w3.org/2000/svg" width="174" height="55" viewBox="0 0 174 55" fill="none"><g clip-path="url(#clip0_1_9)"><path d="M112.093 9.8065C112.093 10.0047 112.022 10.1782 111.88 10.33C111.737 10.4817 111.564 10.5561 111.359 10.5561C111.173 10.5561 111.009 10.4817 110.867 10.33C110.724 10.1782 110.653 10.0047 110.653 9.8065C110.653 9.58969 110.724 9.41004 110.867 9.26447C111.009 9.11889 111.173 9.04456 111.359 9.04456C111.564 9.04456 111.737 9.11889 111.88 9.26447C112.022 9.41004 112.093 9.59279 112.093 9.8065ZM110.811 18.5008V11.6154H111.892V18.5008H110.811Z" fill="white"></path><path d="M118.056 18.5008V13.957C118.056 13.7216 118.043 13.5079 118.022 13.3158C118 13.1238 117.95 12.9596 117.873 12.8234C117.795 12.6871 117.684 12.5849 117.532 12.5136C117.38 12.4424 117.176 12.4083 116.916 12.4083C116.603 12.4083 116.262 12.4796 115.897 12.6189C115.531 12.7614 115.203 12.9163 114.918 13.0835V18.5039H113.837V11.6185H114.89L114.903 12.2101L114.943 12.238C115.308 11.9933 115.702 11.8043 116.12 11.668C116.538 11.5318 116.907 11.4636 117.216 11.4636C117.662 11.4636 118.012 11.5318 118.266 11.668C118.52 11.8043 118.712 11.9778 118.842 12.1915C118.972 12.4052 119.053 12.6406 119.084 12.9039C119.115 13.1672 119.13 13.4273 119.13 13.6813V18.507H118.049L118.056 18.5008Z" fill="white"></path><path d="M120.791 17.2742C121.209 17.4724 121.59 17.5994 121.94 17.6552C122.287 17.7109 122.575 17.7388 122.807 17.7388C123.011 17.7388 123.206 17.7202 123.386 17.683C123.569 17.6459 123.727 17.5839 123.86 17.5003C123.993 17.4167 124.099 17.3021 124.173 17.1596C124.247 17.0171 124.287 16.8437 124.287 16.6361C124.287 16.4565 124.25 16.3047 124.173 16.1777C124.099 16.0507 123.996 15.9423 123.866 15.8525C123.736 15.7627 123.587 15.6853 123.42 15.6202C123.25 15.5552 123.073 15.487 122.887 15.422C122.603 15.3167 122.33 15.2145 122.067 15.1122C121.803 15.01 121.571 14.883 121.367 14.7375C121.162 14.5919 120.998 14.4153 120.874 14.2078C120.75 14.0003 120.688 13.737 120.688 13.4149C120.688 13.0928 120.75 12.7985 120.874 12.5507C120.998 12.306 121.168 12.1016 121.382 11.9437C121.596 11.7826 121.844 11.6649 122.129 11.5906C122.414 11.5162 122.72 11.476 123.049 11.476C123.182 11.476 123.333 11.4852 123.501 11.5038C123.668 11.5224 123.841 11.5503 124.015 11.5875C124.188 11.6246 124.359 11.6742 124.529 11.733C124.696 11.7919 124.854 11.8693 124.997 11.9622L124.662 12.7614C124.325 12.6189 124.027 12.5229 123.767 12.4733C123.51 12.4206 123.265 12.3959 123.033 12.3959C122.863 12.3959 122.699 12.4114 122.541 12.4454C122.379 12.4795 122.24 12.5352 122.119 12.6158C121.999 12.6963 121.903 12.8016 121.825 12.9348C121.751 13.068 121.71 13.226 121.71 13.4149C121.71 13.5667 121.757 13.6968 121.85 13.8021C121.943 13.9105 122.06 14.0065 122.203 14.0932C122.345 14.1768 122.497 14.2481 122.655 14.3038C122.816 14.3596 122.962 14.4122 123.095 14.4587C123.371 14.5516 123.643 14.6507 123.91 14.7499C124.176 14.849 124.418 14.976 124.631 15.1308C124.845 15.2857 125.015 15.4808 125.145 15.71C125.276 15.9392 125.337 16.2397 125.337 16.6083C125.337 16.9583 125.272 17.2556 125.145 17.5065C125.015 17.7574 124.839 17.9618 124.613 18.1229C124.387 18.2839 124.114 18.4016 123.798 18.476C123.482 18.5503 123.138 18.5906 122.764 18.5906C122.568 18.5906 122.364 18.5782 122.156 18.5565C121.946 18.5317 121.741 18.5007 121.537 18.4605C121.333 18.4202 121.134 18.3645 120.942 18.2932C120.75 18.2251 120.583 18.1476 120.441 18.064L120.787 17.2804L120.791 17.2742Z" fill="white"></path><path d="M128.184 9.86536V11.6154H130.145V12.4609H128.172V16.5278C128.172 16.8561 128.23 17.1256 128.351 17.3362C128.472 17.5468 128.714 17.6521 129.079 17.6521C129.373 17.6521 129.782 17.5716 130.306 17.4136L130.479 18.191C130.238 18.3118 129.974 18.4079 129.686 18.4729C129.398 18.5379 129.119 18.572 128.853 18.572C127.679 18.572 127.091 18.0083 127.091 16.884V12.464H126.143V11.8477L127.143 11.5193L127.481 9.99545L128.184 9.86845V9.86536Z" fill="white"></path><path d="M133.041 9.8065C133.041 10.0047 132.969 10.1782 132.827 10.33C132.684 10.4817 132.511 10.5561 132.307 10.5561C132.121 10.5561 131.957 10.4817 131.814 10.33C131.672 10.1782 131.6 10.0047 131.6 9.8065C131.6 9.58969 131.672 9.41004 131.814 9.26447C131.957 9.11889 132.121 9.04456 132.307 9.04456C132.511 9.04456 132.684 9.11889 132.827 9.26447C132.969 9.41004 133.041 9.59279 133.041 9.8065ZM131.758 18.5008V11.6154H132.839V18.5008H131.758Z" fill="white"></path><path d="M136.324 9.86536V11.6154H138.284V12.4609H136.311V16.5278C136.311 16.8561 136.37 17.1256 136.491 17.3362C136.612 17.5468 136.853 17.6521 137.219 17.6521C137.513 17.6521 137.922 17.5716 138.445 17.4136L138.619 18.191C138.377 18.3118 138.114 18.4079 137.826 18.4729C137.538 18.5379 137.259 18.572 136.993 18.572C135.819 18.572 135.23 18.0083 135.23 16.884V12.464H134.283V11.8477L135.283 11.5193L135.621 9.99545L136.324 9.86845V9.86536Z" fill="white"></path><path d="M141.419 18.6557C140.973 18.6557 140.626 18.5907 140.378 18.4575C140.13 18.3274 139.941 18.1539 139.818 17.9433C139.694 17.7327 139.616 17.4942 139.585 17.2309C139.554 16.9676 139.539 16.7075 139.539 16.4535V11.6123H140.62V16.1716C140.62 16.4163 140.632 16.6331 140.654 16.8221C140.676 17.011 140.725 17.169 140.799 17.3022C140.874 17.4353 140.985 17.5345 141.134 17.6057C141.28 17.6769 141.484 17.711 141.741 17.711C141.998 17.711 142.289 17.6398 142.642 17.5004C142.992 17.3579 143.324 17.138 143.637 16.8376V11.6154C143.816 11.6154 143.996 11.6154 144.179 11.6092C144.358 11.6061 144.538 11.603 144.718 11.603V18.5039H143.649L143.637 17.7265L143.609 17.6986C143.395 17.8968 143.181 18.0579 142.968 18.1849C142.754 18.3119 142.553 18.411 142.361 18.4822C142.168 18.5535 141.995 18.5999 141.834 18.6247C141.673 18.6495 141.537 18.6588 141.422 18.6588L141.419 18.6557Z" fill="white"></path><path d="M147.796 9.86536V11.6154H149.757V12.4609H147.784V16.5278C147.784 16.8561 147.843 17.1256 147.964 17.3362C148.084 17.5468 148.326 17.6521 148.692 17.6521C148.986 17.6521 149.395 17.5716 149.918 17.4136L150.092 18.191C149.85 18.3118 149.587 18.4079 149.299 18.4729C149.011 18.5379 148.732 18.572 148.465 18.572C147.292 18.572 146.703 18.0083 146.703 16.884V12.464H145.755V11.8477L146.756 11.5193L147.093 9.99545L147.796 9.86845V9.86536Z" fill="white"></path><path d="M156.642 15.072C156.642 15.5149 156.596 15.9454 156.503 16.3698C156.41 16.7941 156.249 17.172 156.023 17.5065C155.797 17.841 155.49 18.1074 155.109 18.3118C154.728 18.5131 154.251 18.6154 153.681 18.6154C153.149 18.6154 152.7 18.5193 152.34 18.3273C151.981 18.1353 151.693 17.8782 151.479 17.5592C151.265 17.2401 151.114 16.8684 151.018 16.4441C150.925 16.0198 150.878 15.5738 150.878 15.103C150.878 14.6322 150.931 14.1954 151.039 13.7618C151.145 13.3282 151.315 12.9441 151.547 12.6034C151.78 12.2658 152.08 11.9932 152.455 11.7857C152.83 11.5782 153.282 11.476 153.815 11.476C154.347 11.476 154.812 11.5782 155.174 11.7857C155.54 11.9932 155.831 12.2627 156.048 12.5972C156.265 12.9317 156.419 13.3158 156.509 13.7463C156.599 14.1799 156.642 14.6229 156.642 15.072ZM155.509 15.0999C155.509 14.7901 155.49 14.4742 155.45 14.1552C155.41 13.8361 155.329 13.5419 155.202 13.2724C155.078 13.0029 154.905 12.7861 154.682 12.6158C154.459 12.4454 154.171 12.3618 153.815 12.3618C153.458 12.3618 153.152 12.4454 152.919 12.6096C152.687 12.7737 152.508 12.9875 152.371 13.2445C152.238 13.5047 152.145 13.799 152.089 14.1273C152.037 14.4556 152.009 14.7808 152.009 15.0999C152.009 15.4375 152.031 15.7689 152.074 16.0879C152.117 16.4069 152.204 16.6888 152.334 16.9273C152.464 17.1658 152.644 17.3609 152.882 17.5065C153.118 17.6521 153.427 17.7264 153.808 17.7264C154.165 17.7264 154.45 17.649 154.669 17.4941C154.886 17.3392 155.06 17.1348 155.184 16.8808C155.308 16.6269 155.391 16.345 155.438 16.0353C155.481 15.7255 155.506 15.4158 155.506 15.103L155.509 15.0999Z" fill="white"></path><path d="M166.021 17.8504L165.993 17.8225C165.727 18.0579 165.414 18.2438 165.052 18.38C164.692 18.5163 164.339 18.5845 163.992 18.5845C163.522 18.5845 163.128 18.4915 162.819 18.3088C162.506 18.1261 162.258 17.8783 162.072 17.5685C161.886 17.2588 161.753 16.8995 161.673 16.4876C161.592 16.0787 161.552 15.642 161.552 15.1836C161.552 14.657 161.598 14.1676 161.691 13.7154C161.784 13.2632 161.936 12.8698 162.143 12.5384C162.351 12.2039 162.627 11.9406 162.964 11.7486C163.302 11.5566 163.711 11.4605 164.191 11.4605C164.315 11.4605 164.454 11.4698 164.612 11.4884C164.767 11.507 164.925 11.538 165.086 11.5813C165.247 11.6247 165.405 11.6743 165.56 11.7362C165.715 11.7982 165.86 11.8756 165.993 11.9685V8.46851H167.074V18.5008H166.021V17.8504ZM165.996 12.8698C165.925 12.8141 165.826 12.7552 165.702 12.6995C165.578 12.6437 165.439 12.588 165.287 12.5384C165.135 12.4858 164.977 12.4455 164.813 12.4176C164.649 12.3898 164.494 12.3743 164.352 12.3743C164.119 12.3743 163.906 12.4176 163.704 12.5075C163.503 12.5973 163.327 12.749 163.172 12.9659C163.017 13.1827 162.893 13.4707 162.806 13.8331C162.716 14.1955 162.673 14.6508 162.673 15.196C162.673 15.676 162.713 16.0756 162.794 16.3946C162.874 16.7137 162.983 16.9707 163.119 17.1628C163.258 17.3548 163.426 17.4911 163.627 17.5716C163.828 17.6522 164.048 17.6924 164.287 17.6924C164.42 17.6924 164.569 17.6707 164.733 17.6274C164.897 17.584 165.058 17.5283 165.219 17.457C165.38 17.3858 165.529 17.3114 165.665 17.2309C165.804 17.1504 165.913 17.0699 165.993 16.9831V12.8636L165.996 12.8698Z" fill="white"></path><path d="M171.373 11.4605C171.81 11.4605 172.176 11.5224 172.473 11.6432C172.77 11.764 173.018 11.9251 173.213 12.1233C173.408 12.3216 173.56 12.5415 173.665 12.7862C173.771 13.0309 173.851 13.2755 173.898 13.5202C173.947 13.7649 173.975 13.9941 173.984 14.2109C173.994 14.4278 173.997 14.6074 173.997 14.7468V15.2981H169.633C169.633 15.6171 169.661 15.9238 169.713 16.2149C169.766 16.5061 169.865 16.7632 170.007 16.9831C170.15 17.203 170.342 17.3795 170.58 17.5127C170.822 17.6459 171.122 17.711 171.488 17.711C171.853 17.711 172.219 17.6676 172.535 17.584C172.851 17.5003 173.195 17.3764 173.569 17.2185L173.836 17.9525C173.446 18.1694 173.052 18.3304 172.656 18.4326C172.259 18.5348 171.844 18.5875 171.407 18.5875C170.828 18.5875 170.354 18.4946 169.98 18.3056C169.605 18.1167 169.311 17.8658 169.094 17.5499C168.877 17.234 168.725 16.8623 168.642 16.4348C168.558 16.0074 168.515 15.5521 168.515 15.072C168.515 14.8645 168.527 14.6322 168.555 14.372C168.583 14.1149 168.632 13.8517 168.71 13.5884C168.784 13.3251 168.889 13.0649 169.022 12.8047C169.156 12.5446 169.329 12.3185 169.543 12.1202C169.757 11.922 170.011 11.764 170.311 11.6401C170.608 11.5193 170.961 11.4574 171.37 11.4574L171.373 11.4605ZM171.398 12.3061C171.085 12.3061 170.825 12.368 170.611 12.4888C170.398 12.6096 170.221 12.7769 170.085 12.9813C169.946 13.1888 169.843 13.4273 169.778 13.6999C169.71 13.9724 169.67 14.2543 169.651 14.5455H172.975C172.975 14.2171 172.947 13.9136 172.894 13.6348C172.842 13.3561 172.755 13.1207 172.634 12.9224C172.513 12.7242 172.355 12.5724 172.154 12.464C171.953 12.3556 171.702 12.303 171.401 12.303L171.398 12.3061Z" fill="white"></path><path d="M111.573 26.3898C111.839 26.1637 112.146 25.984 112.49 25.8477C112.834 25.7115 113.18 25.6433 113.527 25.6433C113.992 25.6433 114.382 25.7362 114.698 25.919C115.014 26.1017 115.268 26.3526 115.454 26.6685C115.64 26.9845 115.776 27.35 115.857 27.7681C115.937 28.1862 115.977 28.6261 115.977 29.0876C115.977 29.5955 115.931 30.0694 115.838 30.5123C115.745 30.9553 115.593 31.3393 115.389 31.6708C115.184 31.9991 114.915 32.2624 114.58 32.4544C114.246 32.6464 113.837 32.7424 113.357 32.7424C113.233 32.7424 113.091 32.7362 112.936 32.7208C112.781 32.7053 112.62 32.6836 112.453 32.6526C112.288 32.6216 112.124 32.5752 111.963 32.5132C111.802 32.4513 111.657 32.3708 111.52 32.2716V35.5517H110.452V25.73H111.492L111.505 26.3371L111.573 26.3929V26.3898ZM111.533 31.3982C111.604 31.4539 111.703 31.5128 111.827 31.5685C111.951 31.6243 112.087 31.6801 112.236 31.7327C112.384 31.7854 112.536 31.8256 112.697 31.8535C112.858 31.8814 113.013 31.8969 113.165 31.8969C113.397 31.8969 113.617 31.8535 113.822 31.7637C114.026 31.6739 114.209 31.519 114.364 31.296C114.518 31.073 114.642 30.7818 114.732 30.4194C114.822 30.057 114.865 29.6048 114.865 29.069C114.865 28.5889 114.825 28.1893 114.745 27.8734C114.664 27.5575 114.553 27.3066 114.41 27.1176C114.268 26.9287 114.094 26.7955 113.896 26.715C113.695 26.6345 113.475 26.5942 113.233 26.5942C113.1 26.5942 112.948 26.6159 112.784 26.6592C112.62 26.7026 112.456 26.7584 112.295 26.8296C112.134 26.9008 111.988 26.9752 111.852 27.0557C111.715 27.1362 111.61 27.2199 111.53 27.3035V31.4075L111.533 31.3982Z" fill="white"></path><path d="M118.644 26.6994C118.805 26.5477 118.982 26.4052 119.177 26.2689C119.372 26.1326 119.573 26.0118 119.778 25.9096C119.982 25.8074 120.184 25.7207 120.379 25.6556C120.574 25.5906 120.757 25.5565 120.927 25.5565C121.026 25.5565 121.103 25.5813 121.168 25.6278C121.23 25.6742 121.261 25.7671 121.261 25.9096C121.261 25.9654 121.249 26.0428 121.227 26.1357C121.206 26.2286 121.178 26.3278 121.147 26.4238C121.116 26.5229 121.079 26.6189 121.032 26.7118C120.989 26.8048 120.939 26.8853 120.887 26.9503C120.512 26.9968 120.137 27.0463 119.759 27.099C119.381 27.1517 119.007 27.2012 118.632 27.2477V32.6092H117.551V25.7238H118.604L118.564 26.6406L118.644 26.6963V26.6994Z" fill="white"></path><path d="M127.716 29.1836C127.716 29.6265 127.67 30.0571 127.577 30.4814C127.484 30.9057 127.323 31.2836 127.097 31.6181C126.871 31.9526 126.564 32.219 126.183 32.4234C125.802 32.6248 125.325 32.727 124.755 32.727C124.222 32.727 123.773 32.631 123.414 32.4389C123.055 32.2469 122.767 31.9898 122.553 31.6708C122.339 31.3518 122.187 30.9801 122.091 30.5557C121.998 30.1314 121.952 29.6854 121.952 29.2146C121.952 28.7438 122.005 28.3071 122.113 27.8734C122.218 27.4398 122.389 27.0557 122.621 26.715C122.853 26.3774 123.154 26.1048 123.529 25.8973C123.903 25.6898 124.356 25.5876 124.888 25.5876C125.421 25.5876 125.886 25.6898 126.248 25.8973C126.614 26.1048 126.905 26.3743 127.122 26.7088C127.338 27.0433 127.493 27.4274 127.583 27.8579C127.673 28.2916 127.716 28.7345 127.716 29.1836ZM126.583 29.2115C126.583 28.9017 126.564 28.5858 126.524 28.2668C126.483 27.9478 126.403 27.6535 126.276 27.384C126.152 27.1146 125.979 26.8978 125.756 26.7274C125.533 26.5571 125.245 26.4734 124.888 26.4734C124.532 26.4734 124.225 26.557 123.993 26.7212C123.761 26.8854 123.581 27.0991 123.445 27.3562C123.312 27.6163 123.219 27.9106 123.163 28.2389C123.11 28.5672 123.083 28.8925 123.083 29.2115C123.083 29.5491 123.104 29.8805 123.148 30.1995C123.191 30.5186 123.278 30.8004 123.408 31.0389C123.538 31.2774 123.718 31.4725 123.956 31.6181C124.191 31.7637 124.501 31.838 124.882 31.838C125.238 31.838 125.523 31.7606 125.743 31.6057C125.96 31.4509 126.133 31.2464 126.257 30.9925C126.381 30.7385 126.465 30.4566 126.511 30.1469C126.555 29.8371 126.579 29.5274 126.579 29.2146L126.583 29.2115ZM124.916 25.0641L124.436 24.6274L126.078 22.3416L126.852 23.1035L124.916 25.0641Z" fill="white"></path><path d="M130.665 23.9769V25.7269H132.626V26.5725H130.653V30.6393C130.653 30.9677 130.711 31.2371 130.832 31.4477C130.953 31.6584 131.195 31.7637 131.56 31.7637C131.854 31.7637 132.263 31.6831 132.787 31.5252L132.96 32.3026C132.718 32.4234 132.455 32.5194 132.167 32.5845C131.879 32.6495 131.6 32.6836 131.334 32.6836C130.16 32.6836 129.572 32.1199 129.572 30.9955V26.5756H128.624V25.9592L129.624 25.6309L129.962 24.107L130.665 23.98V23.9769Z" fill="white"></path><path d="M136.603 25.5721C137.039 25.5721 137.405 25.634 137.702 25.7548C137.999 25.8756 138.247 26.0367 138.442 26.2349C138.637 26.4331 138.789 26.653 138.895 26.8977C139 27.1424 139.08 27.3871 139.127 27.6318C139.176 27.8765 139.204 28.1057 139.214 28.3225C139.223 28.5393 139.226 28.719 139.226 28.8584V29.4097H134.862C134.862 29.7287 134.89 30.0354 134.942 30.3265C134.995 30.6177 135.094 30.8747 135.237 31.0946C135.379 31.3146 135.571 31.4911 135.81 31.6243C136.051 31.7575 136.352 31.8225 136.717 31.8225C137.083 31.8225 137.448 31.7792 137.764 31.6955C138.08 31.6119 138.424 31.488 138.799 31.33L139.065 32.0641C138.675 32.2809 138.281 32.442 137.885 32.5442C137.488 32.6464 137.073 32.6991 136.637 32.6991C136.057 32.6991 135.583 32.6062 135.209 32.4172C134.834 32.2283 134.54 31.9774 134.323 31.6615C134.106 31.3455 133.954 30.9739 133.871 30.5464C133.787 30.119 133.744 29.6637 133.744 29.1836C133.744 28.9761 133.756 28.7438 133.784 28.4836C133.812 28.2265 133.861 27.9632 133.939 27.6999C134.013 27.4367 134.118 27.1765 134.252 26.9163C134.385 26.6592 134.558 26.43 134.772 26.2318C134.986 26.0336 135.24 25.8756 135.54 25.7517C135.837 25.6309 136.191 25.569 136.599 25.569L136.603 25.5721ZM136.63 26.4176C136.318 26.4176 136.057 26.4796 135.844 26.6004C135.63 26.7212 135.453 26.8884 135.317 27.0929C135.178 27.3004 135.076 27.5389 135.01 27.8115C134.942 28.084 134.902 28.3659 134.883 28.657H138.207C138.207 28.3287 138.179 28.0252 138.126 27.7464C138.074 27.4676 137.987 27.2322 137.866 27.034C137.745 26.8358 137.587 26.684 137.386 26.5756C137.185 26.4672 136.934 26.4145 136.633 26.4145L136.63 26.4176Z" fill="white"></path><path d="M140.713 31.3858C141.131 31.584 141.512 31.711 141.862 31.7667C142.209 31.8225 142.497 31.8504 142.729 31.8504C142.934 31.8504 143.129 31.8318 143.308 31.7946C143.491 31.7575 143.649 31.6955 143.782 31.6119C143.915 31.5282 144.021 31.4136 144.095 31.2712C144.169 31.1287 144.21 30.9552 144.21 30.7477C144.21 30.5681 144.173 30.4163 144.095 30.2893C144.021 30.1623 143.919 30.0539 143.788 29.9641C143.658 29.8743 143.51 29.7968 143.342 29.7318C143.172 29.6667 142.996 29.5986 142.81 29.5336C142.525 29.4282 142.252 29.326 141.989 29.2238C141.726 29.1185 141.493 28.9946 141.289 28.849C141.084 28.7035 140.92 28.5269 140.796 28.3194C140.673 28.1119 140.611 27.8486 140.611 27.5265C140.611 27.2043 140.673 26.9101 140.796 26.6623C140.92 26.4176 141.091 26.2132 141.304 26.0552C141.518 25.8942 141.766 25.7765 142.051 25.7021C142.336 25.6278 142.642 25.5875 142.971 25.5875C143.104 25.5875 143.256 25.5968 143.423 25.6154C143.59 25.634 143.764 25.6619 143.937 25.699C144.111 25.7362 144.281 25.7858 144.451 25.8446C144.619 25.9035 144.777 25.9809 144.919 26.0738L144.584 26.8729C144.247 26.7335 143.95 26.6344 143.689 26.5849C143.432 26.5322 143.188 26.5074 142.955 26.5074C142.785 26.5074 142.621 26.5229 142.463 26.557C142.302 26.5911 142.162 26.6468 142.042 26.7274C141.921 26.8079 141.825 26.9132 141.747 27.0464C141.673 27.1796 141.633 27.3375 141.633 27.5265C141.633 27.6782 141.679 27.8083 141.772 27.9136C141.865 28.022 141.983 28.1181 142.125 28.2048C142.268 28.2884 142.419 28.3597 142.577 28.4154C142.738 28.4712 142.884 28.5238 143.017 28.5703C143.293 28.6632 143.565 28.7623 143.832 28.8614C144.098 28.9605 144.34 29.0875 144.554 29.2424C144.767 29.3973 144.938 29.5924 145.068 29.8216C145.198 30.0539 145.26 30.3513 145.26 30.7198C145.26 31.0698 145.195 31.3672 145.068 31.6181C144.938 31.869 144.761 32.0734 144.535 32.2344C144.309 32.3955 144.036 32.5132 143.72 32.5875C143.404 32.6619 143.061 32.7021 142.686 32.7021C142.491 32.7021 142.286 32.6898 142.079 32.6681C141.868 32.6433 141.664 32.6123 141.459 32.5721C141.255 32.5318 141.057 32.476 140.865 32.4048C140.673 32.3367 140.505 32.2592 140.363 32.1756L140.71 31.392L140.713 31.3858Z" fill="white"></path><path d="M149.292 25.5721C149.729 25.5721 150.095 25.634 150.392 25.7548C150.689 25.8756 150.937 26.0367 151.132 26.2349C151.327 26.4331 151.479 26.653 151.584 26.8977C151.69 27.1424 151.77 27.3871 151.817 27.6318C151.866 27.8765 151.894 28.1057 151.904 28.3225C151.913 28.5393 151.916 28.719 151.916 28.8584V29.4097H147.552C147.552 29.7287 147.58 30.0354 147.632 30.3265C147.685 30.6177 147.784 30.8747 147.927 31.0946C148.069 31.3146 148.261 31.4911 148.5 31.6243C148.741 31.7575 149.042 31.8225 149.407 31.8225C149.773 31.8225 150.138 31.7792 150.454 31.6955C150.77 31.6119 151.114 31.488 151.488 31.33L151.755 32.0641C151.365 32.2809 150.971 32.442 150.575 32.5442C150.178 32.6464 149.763 32.6991 149.327 32.6991C148.747 32.6991 148.273 32.6062 147.899 32.4172C147.524 32.2283 147.23 31.9774 147.013 31.6615C146.796 31.3455 146.644 30.9739 146.561 30.5464C146.477 30.119 146.434 29.6637 146.434 29.1836C146.434 28.9761 146.446 28.7438 146.474 28.4836C146.502 28.2265 146.551 27.9632 146.629 27.6999C146.703 27.4367 146.808 27.1765 146.942 26.9163C147.075 26.6592 147.248 26.43 147.462 26.2318C147.676 26.0336 147.93 25.8756 148.23 25.7517C148.527 25.6309 148.881 25.569 149.289 25.569L149.292 25.5721ZM149.317 26.4176C149.004 26.4176 148.744 26.4796 148.531 26.6004C148.317 26.7212 148.14 26.8884 148.004 27.0929C147.865 27.3004 147.762 27.5389 147.697 27.8115C147.629 28.084 147.589 28.3659 147.57 28.657H150.894C150.894 28.3287 150.866 28.0252 150.813 27.7464C150.761 27.4676 150.674 27.2322 150.553 27.034C150.432 26.8358 150.274 26.684 150.073 26.5756C149.872 26.4672 149.621 26.4145 149.32 26.4145L149.317 26.4176Z" fill="white"></path><path d="M159.659 25.5721C160.096 25.5721 160.461 25.634 160.759 25.7548C161.056 25.8756 161.304 26.0367 161.499 26.2349C161.694 26.4331 161.846 26.653 161.951 26.8977C162.057 27.1424 162.137 27.3871 162.184 27.6318C162.233 27.8765 162.261 28.1057 162.27 28.3225C162.28 28.5393 162.283 28.719 162.283 28.8584V29.4097H157.919C157.919 29.7287 157.946 30.0354 157.999 30.3265C158.052 30.6177 158.151 30.8747 158.293 31.0946C158.436 31.3146 158.628 31.4911 158.866 31.6243C159.108 31.7575 159.408 31.8225 159.774 31.8225C160.139 31.8225 160.505 31.7792 160.821 31.6955C161.137 31.6119 161.481 31.488 161.855 31.33L162.122 32.0641C161.731 32.2809 161.338 32.442 160.942 32.5442C160.545 32.6464 160.13 32.6991 159.693 32.6991C159.114 32.6991 158.64 32.6062 158.265 32.4172C157.891 32.2283 157.596 31.9774 157.38 31.6615C157.163 31.3455 157.011 30.9739 156.927 30.5464C156.844 30.119 156.8 29.6637 156.8 29.1836C156.8 28.9761 156.813 28.7438 156.841 28.4836C156.869 28.2265 156.918 27.9632 156.996 27.6999C157.07 27.4367 157.175 27.1765 157.308 26.9163C157.442 26.6592 157.615 26.43 157.829 26.2318C158.042 26.0336 158.296 25.8756 158.597 25.7517C158.894 25.6309 159.247 25.569 159.656 25.569L159.659 25.5721ZM159.684 26.4176C159.371 26.4176 159.111 26.4796 158.897 26.6004C158.684 26.7212 158.507 26.8884 158.371 27.0929C158.231 27.3004 158.129 27.5389 158.064 27.8115C157.996 28.084 157.956 28.3659 157.937 28.657H161.261C161.261 28.3287 161.233 28.0252 161.18 27.7464C161.127 27.4676 161.041 27.2322 160.92 27.034C160.799 26.8358 160.641 26.684 160.44 26.5756C160.238 26.4672 159.988 26.4145 159.687 26.4145L159.684 26.4176Z" fill="white"></path><path d="M116.083 43.2951C116.083 43.738 116.036 44.1685 115.943 44.5928C115.85 45.0172 115.689 45.3951 115.463 45.7296C115.237 46.0641 114.93 46.3305 114.549 46.5349C114.168 46.7362 113.691 46.8384 113.121 46.8384C112.589 46.8384 112.14 46.7424 111.78 46.5504C111.421 46.3583 111.133 46.1013 110.919 45.7822C110.706 45.4632 110.554 45.0915 110.458 44.6672C110.365 44.2428 110.318 43.7968 110.318 43.326C110.318 42.8552 110.371 42.4185 110.479 41.9849C110.585 41.5512 110.755 41.1672 110.987 40.8265C111.22 40.4889 111.52 40.2163 111.895 40.0088C112.27 39.8012 112.722 39.699 113.255 39.699C113.787 39.699 114.252 39.8012 114.614 40.0088C114.98 40.2163 115.271 40.4858 115.488 40.8203C115.705 41.1548 115.86 41.5389 115.949 41.9694C116.039 42.403 116.083 42.8459 116.083 43.2951ZM114.949 43.3229C114.949 43.0132 114.93 42.6973 114.89 42.3782C114.85 42.0592 114.769 41.765 114.642 41.4955C114.518 41.226 114.345 41.0092 114.122 40.8389C113.899 40.6685 113.611 40.5849 113.255 40.5849C112.898 40.5849 112.592 40.6685 112.36 40.8327C112.127 40.9968 111.948 41.2105 111.811 41.4676C111.678 41.7278 111.585 42.022 111.529 42.3504C111.477 42.6787 111.449 43.0039 111.449 43.3229C111.449 43.6605 111.471 43.992 111.514 44.311C111.557 44.63 111.644 44.9119 111.774 45.1504C111.904 45.3889 112.084 45.584 112.322 45.7296C112.558 45.8751 112.867 45.9495 113.248 45.9495C113.605 45.9495 113.89 45.8721 114.11 45.7172C114.326 45.5623 114.5 45.3579 114.624 45.1039C114.748 44.8499 114.831 44.5681 114.878 44.2583C114.921 43.9486 114.946 43.6389 114.946 43.326L114.949 43.3229ZM113.279 39.1756L112.799 38.7388L114.441 36.453L115.215 37.215L113.279 39.1756Z" fill="white"></path><path d="M118.737 40.811C118.898 40.6592 119.075 40.5168 119.27 40.3805C119.465 40.2442 119.666 40.1234 119.871 40.0212C120.075 39.919 120.276 39.8323 120.472 39.7672C120.667 39.7022 120.849 39.6681 121.02 39.6681C121.119 39.6681 121.196 39.6929 121.261 39.7393C121.323 39.7858 121.354 39.8818 121.354 40.0212C121.354 40.0769 121.342 40.1544 121.32 40.2473C121.299 40.3402 121.271 40.4393 121.24 40.5354C121.209 40.6345 121.172 40.7305 121.125 40.8234C121.082 40.9163 121.032 40.9969 120.98 41.0619C120.605 41.1084 120.23 41.1579 119.852 41.2106C119.474 41.2632 119.099 41.3128 118.725 41.3592V46.7208H117.644V39.8353H118.697L118.657 40.7522L118.737 40.8079V40.811Z" fill="white"></path><path d="M123.715 38.0885V39.8385H125.675V40.6841H123.702V44.7509C123.702 45.0792 123.761 45.3487 123.882 45.5593C124.003 45.7699 124.244 45.8752 124.61 45.8752C124.904 45.8752 125.313 45.7947 125.836 45.6368L126.01 46.4142C125.768 46.535 125.505 46.631 125.217 46.696C124.929 46.7611 124.65 46.7952 124.384 46.7952C123.21 46.7952 122.621 46.2314 122.621 45.1071V40.6872H121.673V40.0708L122.674 39.7425L123.011 38.2186L123.715 38.0916V38.0885Z" fill="white"></path><path d="M129.652 39.6836C130.089 39.6836 130.454 39.7456 130.752 39.8664C131.049 39.9872 131.297 40.1482 131.492 40.3465C131.687 40.5447 131.839 40.7646 131.944 41.0093C132.049 41.254 132.13 41.4987 132.176 41.7434C132.226 41.9881 132.254 42.2173 132.263 42.4341C132.272 42.6509 132.276 42.8306 132.276 42.9699V43.5213H127.911C127.911 43.8403 127.939 44.1469 127.992 44.4381C128.045 44.7292 128.144 44.9863 128.286 45.2062C128.429 45.4261 128.621 45.6027 128.859 45.7359C129.101 45.8691 129.401 45.9341 129.767 45.9341C130.132 45.9341 130.498 45.8907 130.814 45.8071C131.13 45.7235 131.473 45.5996 131.848 45.4416L132.114 46.1757C131.724 46.3925 131.331 46.5536 130.934 46.6558C130.538 46.758 130.123 46.8106 129.686 46.8106C129.107 46.8106 128.633 46.7177 128.258 46.5288C127.883 46.3398 127.589 46.089 127.372 45.773C127.156 45.4571 127.004 45.0854 126.92 44.658C126.837 44.2306 126.793 43.7752 126.793 43.2952C126.793 43.0876 126.806 42.8553 126.833 42.5952C126.861 42.335 126.911 42.0748 126.988 41.8115C127.063 41.5482 127.168 41.2881 127.301 41.0279C127.434 40.7708 127.608 40.5416 127.822 40.3434C128.035 40.1451 128.289 39.9872 128.59 39.8633C128.887 39.7425 129.24 39.6805 129.649 39.6805L129.652 39.6836ZM129.677 40.5292C129.364 40.5292 129.104 40.5912 128.89 40.712C128.676 40.8328 128.5 41 128.364 41.2044C128.224 41.412 128.122 41.6505 128.057 41.923C127.989 42.1956 127.949 42.4775 127.93 42.7686H131.253C131.253 42.4403 131.226 42.1367 131.173 41.858C131.12 41.5792 131.033 41.3438 130.913 41.1456C130.792 40.9474 130.634 40.7956 130.433 40.6872C130.231 40.5788 129.98 40.5261 129.68 40.5261L129.677 40.5292Z" fill="white"></path><path d="M133.759 45.4973C134.177 45.6956 134.558 45.8226 134.908 45.8783C135.255 45.9341 135.543 45.9619 135.776 45.9619C135.98 45.9619 136.175 45.9434 136.355 45.9062C136.538 45.869 136.695 45.8071 136.829 45.7234C136.962 45.6398 137.067 45.5252 137.141 45.3827C137.216 45.2403 137.256 45.0668 137.256 44.8593C137.256 44.6796 137.219 44.5279 137.141 44.4009C137.067 44.2739 136.965 44.1655 136.835 44.0757C136.705 43.9858 136.556 43.9084 136.389 43.8434C136.218 43.7783 136.042 43.7102 135.856 43.6451C135.571 43.5398 135.299 43.4376 135.035 43.3354C134.772 43.2301 134.54 43.1062 134.335 42.9606C134.131 42.815 133.967 42.6385 133.843 42.431C133.719 42.2234 133.657 41.9602 133.657 41.638C133.657 41.3159 133.719 41.0217 133.843 40.7739C133.967 40.5292 134.137 40.3248 134.351 40.1668C134.564 40.0057 134.812 39.888 135.097 39.8137C135.382 39.7394 135.689 39.6991 136.017 39.6991C136.15 39.6991 136.302 39.7084 136.469 39.727C136.637 39.7456 136.81 39.7734 136.984 39.8106C137.157 39.8478 137.327 39.8973 137.498 39.9562C137.665 40.015 137.823 40.0925 137.965 40.1854L137.631 40.9845C137.293 40.842 136.996 40.746 136.736 40.6964C136.479 40.6438 136.234 40.619 136.002 40.619C135.831 40.619 135.667 40.6345 135.509 40.6686C135.348 40.7026 135.209 40.7584 135.088 40.8389C134.967 40.9195 134.871 41.0248 134.794 41.1579C134.719 41.2911 134.679 41.4491 134.679 41.638C134.679 41.7898 134.726 41.9199 134.818 42.0252C134.911 42.1336 135.029 42.2296 135.172 42.3164C135.314 42.4 135.466 42.4712 135.624 42.527C135.785 42.5827 135.93 42.6354 136.064 42.6818C136.339 42.7748 136.612 42.8739 136.878 42.973C137.145 43.0721 137.386 43.1991 137.6 43.354C137.814 43.5088 137.984 43.704 138.114 43.9332C138.244 44.1624 138.306 44.4628 138.306 44.8314C138.306 45.1814 138.241 45.4788 138.114 45.7296C137.984 45.9805 137.807 46.185 137.581 46.346C137.355 46.5071 137.083 46.6248 136.767 46.6991C136.451 46.7735 136.107 46.8137 135.732 46.8137C135.537 46.8137 135.333 46.8013 135.125 46.7796C134.914 46.7549 134.71 46.7239 134.506 46.6836C134.301 46.6434 134.103 46.5876 133.911 46.5164C133.719 46.4482 133.552 46.3708 133.409 46.2872L133.756 45.5035L133.759 45.4973Z" fill="white"></path><path d="M142.339 39.6836C142.776 39.6836 143.141 39.7456 143.438 39.8664C143.736 39.9872 143.984 40.1482 144.179 40.3465C144.374 40.5447 144.526 40.7646 144.631 41.0093C144.736 41.254 144.817 41.4987 144.863 41.7434C144.913 41.9881 144.941 42.2173 144.95 42.4341C144.959 42.6509 144.962 42.8306 144.962 42.9699V43.5213H140.598C140.598 43.8403 140.626 44.1469 140.679 44.4381C140.731 44.7292 140.83 44.9863 140.973 45.2062C141.115 45.4261 141.307 45.6027 141.546 45.7359C141.788 45.8691 142.088 45.9341 142.453 45.9341C142.819 45.9341 143.184 45.8907 143.5 45.8071C143.816 45.7235 144.16 45.5996 144.535 45.4416L144.801 46.1757C144.411 46.3925 144.018 46.5536 143.621 46.6558C143.225 46.758 142.81 46.8106 142.373 46.8106C141.794 46.8106 141.32 46.7177 140.945 46.5288C140.57 46.3398 140.276 46.089 140.059 45.773C139.842 45.4571 139.691 45.0854 139.607 44.658C139.523 44.2306 139.48 43.7752 139.48 43.2952C139.48 43.0876 139.492 42.8553 139.52 42.5952C139.548 42.335 139.598 42.0748 139.675 41.8115C139.749 41.5482 139.855 41.2881 139.988 41.0279C140.121 40.7708 140.295 40.5416 140.508 40.3434C140.722 40.1451 140.976 39.9872 141.276 39.8633C141.574 39.7425 141.927 39.6805 142.336 39.6805L142.339 39.6836ZM142.367 40.5292C142.054 40.5292 141.794 40.5912 141.58 40.712C141.366 40.8328 141.19 41 141.053 41.2044C140.914 41.412 140.812 41.6505 140.747 41.923C140.679 42.1956 140.638 42.4775 140.62 42.7686H143.943C143.943 42.4403 143.915 42.1367 143.863 41.858C143.81 41.5792 143.723 41.3438 143.603 41.1456C143.482 40.9474 143.324 40.7956 143.122 40.6872C142.921 40.5788 142.67 40.5261 142.37 40.5261L142.367 40.5292Z" fill="white"></path><path d="M80.1006 40.9039C77.3006 44.2522 74.0019 45.6026 68.8541 45.6026C64.205 45.6026 57.9081 44.2026 57.9081 34.0092C57.9081 23.8158 61.3554 16.5154 64.2546 13.5667C66.2523 11.5162 69.201 9.61755 74.5502 9.61755C79.3975 9.61755 85.6449 11.318 85.6449 21.4123C85.6449 29.1092 83.4953 36.8061 80.0975 40.9039H80.1006ZM73.9524 15.2145C72.2024 15.2145 70.9046 16.5649 69.9537 18.1136C67.6554 21.9605 66.2059 30.9088 66.2059 34.5574C66.2059 39.0052 67.5563 39.9035 69.7555 39.9035C71.1555 39.9035 72.5028 39.0548 73.4537 37.6052C76.0028 33.7057 77.4524 23.661 77.4524 20.0618C77.4524 16.0631 76.3033 15.2145 73.9555 15.2145H73.9524Z" fill="white"></path><path d="M98.6568 55L98.2263 27.5482L98.6568 0.220215L99.0874 27.5482L98.6568 55Z" fill="white"></path><path d="M44.4562 9.61755H37.4067C37.6514 9.7972 37.8372 9.99543 37.9332 10.1472C38.2553 10.649 38.0974 11.3211 38.1222 12.0428C38.1376 12.4671 38.1934 12.8605 38.1036 13.2043C37.9859 13.6441 37.6359 14.3348 37.2642 14.5423C37.0195 14.6817 36.7345 14.6786 36.4651 14.6941C35.4275 14.7561 35.2106 15.7286 35.2075 15.7441C35.1921 15.8185 35.7589 16.1375 36.2885 18.8043C36.3443 19.0893 36.4372 19.557 36.5301 19.8233C36.716 20.3778 37.0876 21.5609 37.0876 21.5609C37.3664 21.4556 37.6545 21.5702 37.9549 21.5919C38.6828 21.6508 39.5129 21.1521 39.7607 21.0561C39.6894 20.7773 39.8009 20.5233 39.8846 20.2632C39.9775 19.9689 40.0642 19.6963 40.4638 19.684C41.0492 19.6654 41.3248 20.4118 41.1204 21.0375C40.8292 21.9388 39.9961 22.2424 39.008 22.8154C38.6952 22.995 38.3576 23.1375 37.989 23.2738C37.4005 23.4875 36.7191 23.6919 36.273 23.3512C35.8549 23.0322 35.2447 21.4587 35.2416 21.4556C34.9845 20.7309 34.3 19.4052 34.1792 19.2534C33.9655 19.2968 34.1947 19.5941 31.9894 20.7061C31.1624 21.1242 30.0195 22.1835 29.4867 22.9393C29.0593 23.5433 28.7093 24.4756 28.7062 24.618C28.6876 24.6056 28.2974 24.3981 28.0712 24.361C27.9009 24.3331 27.7832 24.4415 27.7398 24.5313C27.6531 24.711 27.7801 24.903 27.5602 25.1384C27.5137 25.1879 27.3217 25.3459 27.1358 25.1848C26.823 24.9185 27.1173 24.6769 27.2288 24.5592C27.331 24.4384 27.4239 24.2464 27.3991 24.0295C27.3681 23.7539 26.5938 23.2149 26.1602 23.2428C25.8938 23.2614 25.6987 23.6238 25.6212 23.8096C25.581 23.9056 25.5097 24.3207 25.3951 24.2835C25.2588 24.2402 25.008 23.8003 24.5527 23.8468C24.1872 23.884 23.8681 24.3393 23.9053 24.7636C23.9208 24.9247 23.9487 25.0641 24.0819 25.2158C24.2088 25.3583 24.3885 25.3955 24.4969 25.4141C24.6115 25.4326 24.692 25.4481 24.7168 25.5132C24.7819 25.6897 24.4969 26.0056 24.1903 26.4424C24.1314 26.526 24.0633 26.6313 24.0757 26.7707C24.0881 26.8822 24.15 26.9782 24.246 27.0711C24.4721 27.2818 24.7106 27.4211 24.9615 27.545C25.0513 27.5884 25.1628 27.6132 25.2465 27.6039C25.3363 27.5946 25.4416 27.5326 25.4819 27.4676C25.5624 27.3406 25.5934 26.8729 25.8257 26.8574C26.0456 26.8419 26.3584 27.0154 26.4482 27.1672C26.504 27.257 26.5226 27.3437 26.5288 27.4026C26.5473 27.5357 26.2562 27.9012 26.2004 27.9725C26.0889 28.1149 26.1013 28.3349 26.2655 28.5114C26.4173 28.6725 27.077 29.0039 27.1451 29.0349C27.1266 29.0968 25.3982 34.3809 25.0451 35.1335C24.6239 36.0287 22.5827 40.9132 22.1584 42.3659C22.0624 42.7004 21.8425 43.2858 22.2203 44.4814C22.2327 44.5154 22.2482 44.5588 22.2637 44.6022H36.9637L38.7633 34.4057C49.9076 34.257 56.3563 29.707 56.3563 18.9127C56.3563 11.8167 52.0602 9.61755 44.4624 9.61755H44.4562ZM33.9562 32.0114C33.3801 32.4048 32.7761 32.8849 32.2434 33.272C31.4226 33.8698 30.4562 34.4521 29.6881 35.1614C29.1863 35.6229 28.6381 36.2176 28.9819 37.1716C29.0593 37.3853 29.2482 37.6641 29.4155 37.8623C29.5456 38.0172 29.8832 38.3114 29.846 38.5282C29.7624 39.0052 28.4212 38.0946 27.681 37.2831C27.015 36.5552 26.185 36.2455 26.2531 35.9791C26.3832 35.4866 27.0398 35.0809 27.5168 34.7866C28.0589 34.4521 28.5482 34.0804 28.9323 33.7428C29.3536 33.3743 30.1898 31.9773 30.3571 31.7388C30.6297 31.3672 31.6115 30.4937 31.723 30.3605C31.5682 30.3172 28.6659 29.199 27.5695 28.6942C27.046 28.4526 26.4575 28.276 26.6527 28.0406C26.7146 27.9694 27.0491 27.5667 27.0027 27.2446C26.9252 26.7335 26.1509 26.3742 25.7544 26.4207C25.2031 26.4857 25.358 27.1331 25.1102 27.0835C24.9336 27.0464 24.565 26.8791 24.5712 26.6964C24.5743 26.5601 24.8655 26.2318 24.977 26.08C25.3735 25.5596 25.1071 25.2065 24.9491 25.1229C24.7942 25.0424 24.3327 25.0764 24.3234 24.745C24.308 24.2216 24.881 24.2711 25.0885 24.6397C25.1257 24.7017 25.2898 24.8689 25.4106 24.8565C25.5562 24.841 25.6429 24.6769 25.7327 24.5623C25.7761 24.5065 25.9681 24.0636 26.027 23.9211C26.0951 23.757 26.346 23.757 26.5195 23.8716C26.6867 23.9769 27.0243 24.1999 26.8044 24.4074C26.7022 24.5282 26.5319 24.6552 26.5195 24.968C26.5102 25.191 26.6774 25.4481 26.9469 25.603C27.3651 25.8384 27.7801 25.603 27.8792 25.4915C27.9814 25.3831 28.0774 25.2623 28.0712 25.0733C28.0651 24.8968 28.223 24.9154 28.254 24.9185C28.3128 24.9247 30.0474 25.5658 31.8717 26.6344C33.4142 27.5357 35.9509 29.0565 35.827 30.1158C35.7248 31.0296 34.6655 31.5127 33.9531 32.0021L33.9562 32.0114ZM44.354 27.8083C43.2049 28.4588 41.6562 28.8583 39.7545 28.9079L42.1023 15.5149H43.6509C46.3983 15.5149 47.8478 16.0136 47.8478 19.3618C47.8478 22.7101 46.897 26.3092 44.3509 27.8083H44.354Z" fill="white"></path><path d="M33.9563 32.0114C33.3802 32.4048 32.7762 32.8849 32.2435 33.2721C31.4227 33.8699 30.4563 34.4522 29.6882 35.1615C29.1864 35.623 28.6382 36.2177 28.982 37.1716C29.0594 37.3854 29.2483 37.6641 29.4156 37.8623C29.5457 38.0172 29.8833 38.3115 29.8461 38.5283C29.7625 39.0053 28.4213 38.0946 27.6811 37.2831C27.0152 36.5553 26.1851 36.2455 26.2532 35.9792C26.3833 35.4867 27.0399 35.0809 27.5169 34.7867C28.059 34.4522 28.5483 34.0805 28.9324 33.7429C29.3537 33.3743 30.1899 31.9743 30.3572 31.7389C30.6298 31.3672 31.6116 30.4937 31.7231 30.3606C31.5683 30.3172 28.666 29.199 27.5696 28.6942C27.0461 28.4526 26.4576 28.276 26.6528 28.0406C26.7147 27.9694 27.0492 27.5667 27.0028 27.2446C26.9253 26.7336 26.151 26.3743 25.7545 26.4207C25.2032 26.4858 25.3581 27.1331 25.1103 27.0836C24.9337 27.0464 24.5651 26.8791 24.5713 26.6964C24.5744 26.5601 24.8656 26.2318 24.9771 26.08C25.3736 25.5597 25.1072 25.2066 24.9492 25.1229C24.7943 25.0424 24.3328 25.0765 24.3236 24.7451C24.3081 24.2216 24.8811 24.2712 25.0886 24.6397C25.1258 24.7048 25.2899 24.869 25.4107 24.8566C25.5563 24.8411 25.643 24.6769 25.7328 24.5623C25.7762 24.5066 25.9682 24.0636 26.0271 23.9212C26.0952 23.757 26.3461 23.757 26.5196 23.8716C26.6868 23.9769 27.0244 24.1999 26.8045 24.4074C26.7023 24.5282 26.532 24.6521 26.5196 24.9681C26.5103 25.1911 26.6775 25.4482 26.947 25.603C27.3652 25.8384 27.7802 25.603 27.8793 25.4915C27.9815 25.3831 28.0775 25.2623 28.0713 25.0734C28.0652 24.8968 28.2231 24.9154 28.2541 24.9185C28.3129 24.9247 30.0475 25.5659 31.8718 26.6344C33.4143 27.5358 35.951 29.0566 35.8271 30.1159C35.7249 31.0296 34.6656 31.5097 33.9532 32.0022L33.9563 32.0114Z" fill="#DA521F"></path><path d="M21.0496 44.6022C20.7987 44.2646 19.9315 43.4407 19.8974 43.1526C19.8354 42.6292 20.489 42.3597 20.777 41.9756C21.3531 41.2168 21.7062 39.5535 21.6877 38.9123C21.6133 36.3725 22.6076 35.657 22.8832 35.1398C23.162 34.6039 23.385 34.0929 23.4903 33.492C23.5894 32.9035 23.5275 32.1446 23.5027 31.361C23.4748 30.5929 23.4717 29.8898 23.5368 29.2269C23.6204 28.3906 23.7691 27.799 23.6142 26.8853C23.5523 26.5074 23.4872 26.2008 23.4346 25.6867C23.1992 23.3017 25.0142 22.3539 25.2837 22.0225C26.3244 20.7464 26.7023 18.7857 27.5231 17.2278C27.8204 16.6641 27.9505 16.4596 28.1085 15.8649C28.1952 15.9393 29.0965 16.757 29.2111 16.2738C29.3195 15.8092 29.4651 15.772 29.6076 15.7534C29.9762 15.7627 30.0908 16.0384 30.0041 16.2831C29.9204 16.5216 29.6633 16.6703 29.6045 16.7446C29.5425 16.8158 29.4589 16.9304 29.4837 17.0512C29.5178 17.1875 30.1806 17.9649 30.543 18.0083C30.8651 18.0455 31.4195 16.8995 31.5094 17.0915C31.8036 17.7079 32.0762 17.7636 32.4634 17.745C32.9682 17.7203 33.2594 17.2061 33.2594 16.8375C33.2594 15.9269 32.3302 16.2583 32.5222 15.8804C32.5841 15.7596 32.866 15.4964 33.1355 15.2455C33.5072 14.9017 33.3399 14.5238 33.2872 14.4123C33.0488 13.9105 32.6213 13.6751 32.2558 13.7216C32.0297 13.7495 31.9089 14.0995 31.8315 14.1862C31.7138 14.3318 31.4288 14.3132 31.2337 14.1676C31.1005 14.0654 30.8527 13.7061 31.1594 13.5048C31.7169 13.1362 31.6735 12.9813 31.6611 12.8729C31.6487 12.8048 31.6271 12.7459 31.5899 12.6871C31.9306 12.7707 32.2403 12.907 32.5687 13.0525C32.7607 13.1393 33.4142 13.511 33.947 13.4366C34.0864 13.3623 34.2691 13.2694 34.2505 12.6251C34.2381 12.2379 33.7426 11.0455 34.6036 10.0295C34.743 9.86537 34.8855 9.73528 35.0249 9.62378H25.5532L24.6673 13.8362C24.9925 13.5172 25.3518 13.1919 25.7638 13.099C26.4886 12.9379 27.4921 12.8048 28.8642 12.6995C30.9859 12.5353 31.3266 12.6995 31.2956 12.9039C31.2956 12.9101 31.2956 12.9318 31.2399 12.9844C31.1594 13.0618 30.9395 13.1331 30.7939 13.257C30.4563 13.545 30.512 14.1583 30.8992 14.5269C31.1841 14.7995 31.8872 14.9481 32.0917 14.5641C32.4324 13.9291 32.7731 14.3689 32.9063 14.5826C32.9527 14.657 33.0333 14.8149 32.9187 14.9141C32.8505 14.9729 32.1319 15.6326 32.0731 15.9455C31.9987 16.3512 32.4231 16.4225 32.5129 16.4534C32.9961 16.6176 32.7576 17.0605 32.6523 17.1596C32.5625 17.2433 32.3271 17.457 32.0855 17.2092C31.9306 17.0481 31.9399 16.918 31.7943 16.6795C31.7138 16.5464 31.2956 16.3388 30.9735 16.9118C30.8961 17.0512 30.5833 17.6211 30.4253 17.5127C30.3386 17.4539 29.9669 17.1565 30.0195 17.0017C30.0784 16.8313 30.3788 16.6795 30.4718 16.4441C30.5492 16.2521 30.6235 15.7968 30.2364 15.4902C29.9328 15.2517 29.7067 15.2331 29.4806 15.2733C28.951 15.3694 29.0718 15.8649 28.8518 15.9083C28.6226 15.9548 27.6036 14.5826 26.535 14.8521C25.7762 15.0441 24.562 16.2614 24.0602 16.6857C23.9085 17.4539 18.1938 44.6053 18.1938 44.6053" fill="white"></path><path d="M31.2988 12.8945C31.2988 12.8945 31.2988 12.9224 31.243 12.9751C31.1625 13.0525 30.9426 13.1237 30.797 13.2476C30.4594 13.5357 30.5151 14.149 30.9023 14.5176C31.1873 14.7901 31.8904 14.9388 32.0948 14.5547C32.4355 13.9198 32.7762 14.3596 32.9094 14.5733C32.9558 14.6476 33.0364 14.8056 32.9218 14.9047C32.8536 14.9636 32.135 15.6233 32.0762 15.9361C32.0019 16.3419 32.4262 16.4131 32.516 16.4441C32.9992 16.6083 32.7607 17.0512 32.6554 17.1503C32.5656 17.2339 32.3302 17.4476 32.0886 17.1999C31.9337 17.0388 31.943 16.9087 31.7974 16.6702C31.7169 16.537 31.2988 16.3295 30.9766 16.9025C30.8992 17.0419 30.5864 17.6118 30.4284 17.5034C30.3417 17.4446 29.97 17.1472 30.0227 16.9923C30.0815 16.822 30.3819 16.6702 30.4749 16.4348C30.5523 16.2428 30.6266 15.7875 30.2395 15.4808C29.9359 15.2423 29.7098 15.2237 29.4837 15.264C28.9541 15.36 29.0749 15.8556 28.855 15.899C28.6257 15.9454 27.6067 14.5702 26.5381 14.8428C25.9032 15.0038 25.3859 15.583 24.8625 15.9857C24.3545 16.376 23.8248 16.8963 23.3479 17.3547C22.6881 17.9897 22.016 18.6339 21.3129 19.3401C21.0713 19.5817 20.7151 19.972 20.2939 19.8202C20.1142 19.7552 19.6558 19.5477 19.6032 19.3618C19.4328 18.7392 20.0987 18.287 20.3899 18.0578C20.6625 17.8441 21.0032 17.7667 21.3222 17.6335C22.2607 17.2463 22.6819 16.4162 23.1837 15.6233C23.5027 15.1246 23.8682 14.6198 24.3049 14.1614C24.6395 13.8114 25.2094 13.2105 25.7669 13.0866C26.4917 12.9255 27.4952 12.7923 28.8673 12.687C30.989 12.5229 31.3297 12.687 31.2988 12.8914V12.8945Z" fill="#DA521F"></path><path d="M18.9744 19.2163C18.8722 18.2716 19.9562 17.6242 20.3279 17.4446L21.9881 9.61755H6.7894L0 44.6022H14.6845L19.7487 20.291C19.6062 20.2074 19.0456 19.8481 18.9775 19.2163H18.9744Z" fill="white"></path></g><defs><clipPath id="clip0_1_9"><rect width="174" height="54.7798" fill="white" transform="translate(0 0.220215)"></rect></clipPath></defs></svg> 